<?xml version="1.0" encoding="utf-8"?>
<!-- Generator: Adobe Illustrator 22.1.0, SVG Export Plug-In . SVG Version: 6.00 Build 0)  -->
<svg version="1.1" id="Слой_1" xmlns="http://www.w3.org/2000/svg" xmlns:xlink="http://www.w3.org/1999/xlink" x="0px" y="0px"
	 viewBox="0 0 828 237" style="enable-background:new 0 0 828 237;" xml:space="preserve">
<style type="text/css">
	.st0{fill:none;}
	.st1{fill:#000000;}
</style>
<path class="st0" d="M313.7,192.9c-2.9,4.1-6.2,7.8-9.9,11.2c-3.7,3.4-5.2,7.3-4.6,11.7c0.5,3.3,1.8,6,4.1,8
	c2.4,2.2,5.4,3.3,9.1,3.4c14.2,0.2,28.1-2.8,41.7-9c0.4-0.2,0.9-0.2,1.4-0.1c15.9,5.2,32,6.5,48.3,4c16.4-2.5,31.3-8.5,44.8-18.1
	c16.7-11.8,28.8-27.3,36.4-46.7c2.5-6.3,4.3-12.7,5.5-19.2c2-10.9,2.3-21.7,0.8-32.4c-2.7-20.4-10.7-38.3-23.9-53.8
	c-4.3-5-9.1-9.7-14.4-13.9c-17.2-13.7-36.8-21.3-59-22.7c-6.7-0.4-13.3-0.2-19.9,0.8c-24.9,3.4-45.8,14.4-62.7,32.8
	c-14.7,16.1-23.5,35-26.4,56.7c-0.9,6.6-1.1,13.2-0.6,20c1.8,25.4,11.5,47.5,29.1,66.4C313.9,192.3,313.9,192.7,313.7,192.9z
	 M62.8,80.8l65.8-0.1c0.4,0,0.7-0.3,0.7-0.7l0,0l0.2-27.5c0-0.3-0.2-0.5-0.5-0.5l0,0L26.9,52c-0.4,0-0.7,0.3-0.7,0.7v136.9
	c0,0.3,0.2,0.5,0.5,0.5l0,0l35,0.2c0.3,0,0.6-0.2,0.6-0.5l0,0v-48.6c0-0.5,0.4-0.9,0.8-0.9l0,0h60.3c0.5,0,0.9-0.4,0.9-0.8l0,0
	l-0.1-27.1c0-0.5-0.4-0.8-0.8-0.8L63,111.4c-0.3,0-0.5-0.2-0.5-0.5l-0.1-29.5C62.3,81,62.5,80.8,62.8,80.8L62.8,80.8z M165,189.3
	c0,0.5,0.4,0.9,0.9,0.9l0,0l93.3,0.1c0.3,0,0.6-0.3,0.6-0.6v-29.3c0-0.5-0.4-0.9-0.9-0.9l0,0l-57-0.1c-0.3,0-0.5-0.2-0.5-0.5l0,0
	l-0.1-106.1c0-0.5-0.4-0.9-0.9-0.9l0,0 M591.3,148l28.7,41.7c0.2,0.3,0.6,0.5,0.9,0.5H663c0.3,0,0.4-0.1,0.2-0.4l-48.9-71.5
	c-0.1-0.2-0.1-0.5,0-0.7l45-65.2c0.2-0.3,0.1-0.4-0.2-0.4h-41.4c-0.5,0-1,0.3-1.3,0.7l-25.3,38.1c-0.1,0.2-0.3,0.2-0.5,0.1l-0.1-0.1
	l-25.2-38.3c-0.2-0.3-0.5-0.4-0.8-0.4L523.6,52c-0.3,0-0.4,0.1-0.2,0.4l45.3,66.8c0.2,0.3,0.2,0.7,0,1l-48.3,69.3
	c-0.3,0.4-0.2,0.6,0.3,0.6h40.7c0.4,0,0.8-0.2,1.1-0.6l28.2-41.6c0.1-0.2,0.4-0.3,0.6-0.1C591.3,147.9,591.3,148,591.3,148z
	 M752.2,110.4c-0.3,0.5-0.6,0.5-0.8,0l-32.2-57.9c-0.2-0.3-0.4-0.4-0.8-0.4L683.7,52c-0.3,0-0.5,0.2-0.5,0.5c0,0.1,0,0.2,0.1,0.2
	c16.5,30.8,33,61.5,49.4,92.1c0.7,1.3,1,2.7,1,4.1c0,13.3,0,26.8,0,40.6c0,0.4,0.3,0.7,0.7,0.7h35c0.3,0,0.6-0.3,0.6-0.6v-43.1
	c0-0.5,0.1-0.9,0.3-1.3l49.3-92.8c0.1-0.2,0-0.4-0.2-0.5c0,0-0.1,0-0.2,0h-34.9c-0.4,0-0.7,0.2-0.9,0.5L752.2,110.4z"/>
<path class="st1" d="M394.2,15.4c22.2,1.4,41.9,8.9,59,22.7c5.3,4.2,10,8.8,14.4,13.9c13.2,15.4,21.1,33.3,23.9,53.8
	c1.4,10.7,1.2,21.6-0.8,32.4c-1.2,6.5-3,12.9-5.5,19.2c-7.6,19.3-19.7,34.9-36.4,46.7c-13.5,9.5-28.5,15.6-44.8,18.1
	s-32.4,1.2-48.3-4c-0.5-0.1-1-0.1-1.4,0.1c-13.6,6.2-27.5,9.2-41.7,9c-3.7-0.1-6.7-1.2-9.1-3.4c-2.3-2.1-3.6-4.8-4.1-8
	c-0.6-4.4,0.9-8.3,4.6-11.7s7-7.1,9.9-11.2c0.2-0.2,0.1-0.6,0-0.8c-17.6-18.9-27.4-41-29.1-66.4c-0.5-6.7-0.3-13.4,0.6-20
	c2.9-21.8,11.7-40.7,26.4-56.7c17-18.5,37.9-29.4,62.7-32.8C380.9,15.3,387.6,15,394.2,15.4z M353.7,199.6c14.1,6,28.8,8.2,44,6.7
	c13.5-1.3,26.1-5.9,37.8-13.7c5.5-3.7,10.6-7.9,15.3-12.8c15.6-16.2,23.8-35.7,24.5-58.5c0.2-6.8-0.4-13.4-1.8-19.8
	c-3-13.2-8.6-24.9-16.9-35.1c-10.2-12.5-22.4-21.5-36.8-27c-19.9-7.6-40.2-7.8-60.9-0.6c-14.1,4.9-26,12.8-35.6,23.7
	c-14.1,15.8-21.5,34.2-22.3,55.1c-0.3,6.7,0.3,13.3,1.7,19.9c4.4,20.3,14.9,37.3,31.7,51c0.5,0.4,0.7,1.2,0.3,1.8
	c-3.8,6.7-8.1,13.2-13,19.6c-0.2,0.3-0.1,0.4,0.2,0.4c11.1-1.1,21.4-4.6,31-10.5C353.2,199.5,353.5,199.5,353.7,199.6z"/>
<path class="st0" d="M419.9,39.3c14.3,5.5,26.6,14.5,36.8,27c8.3,10.2,13.9,21.9,16.9,35.1c1.4,6.4,2,13,1.8,19.8
	c-0.7,22.8-8.9,42.3-24.5,58.5c-4.7,4.9-9.8,9.1-15.3,12.8c-11.7,7.8-24.3,12.4-37.8,13.7c-15.3,1.5-30-0.7-44-6.7
	c-0.2-0.1-0.5-0.1-0.7,0c-9.6,5.9-19.9,9.4-31,10.5c-0.3,0-0.4-0.1-0.2-0.4c4.9-6.4,9.3-12.9,13-19.6c0.3-0.6,0.2-1.4-0.3-1.8
	c-16.8-13.7-27.3-30.7-31.7-51c-1.4-6.5-2-13.2-1.7-19.9c0.8-20.9,8.2-39.2,22.3-55.1c9.6-10.9,21.5-18.8,35.6-23.7
	C379.8,31.5,400,31.7,419.9,39.3z M372.6,136.9l-18.3-18.2c-0.2-0.2-0.6-0.2-0.9,0l-10.9,10.7c-0.3,0.3-0.3,0.7,0,1l0,0l30.1,30
	c0.2,0.2,0.5,0.2,0.7,0l60.9-60.8c0.2-0.2,0.2-0.6,0-0.8l-11.1-11.1c-0.2-0.2-0.5-0.2-0.7,0l0,0l-49.1,49.1
	C373.2,137.1,372.8,137.1,372.6,136.9L372.6,136.9z"/>
<path class="st1" d="M26.9,52L129,52.1c0.3,0,0.5,0.2,0.5,0.5l0,0l-0.2,27.5c0,0.4-0.3,0.7-0.7,0.7l0,0l-65.8,0.1
	c-0.3,0-0.5,0.2-0.5,0.5l0,0l0.1,29.5c0,0.3,0.2,0.5,0.5,0.5l60.4,0.2c0.5,0,0.8,0.4,0.8,0.8l0.1,27.1c0,0.5-0.4,0.9-0.8,0.9l0,0
	H63.1c-0.5,0-0.9,0.4-0.9,0.8l0,0v48.6c0,0.3-0.2,0.6-0.6,0.6l0,0l-35-0.2c-0.3,0-0.5-0.2-0.5-0.5l0,0v-137
	C26.2,52.3,26.5,52,26.9,52z"/>
<path class="st1" d="M201.2,52"/>
<path class="st1" d="M165.3,52"/>
<path class="st1" d="M201.2,52l0.1,106.9c0,0.3,0.2,0.5,0.5,0.5l0,0l57,0.1c0.5,0,0.9,0.4,0.9,0.9v29.3c0,0.3-0.3,0.6-0.6,0.6
	l-93.3-0.1c-0.5,0-0.9-0.4-0.9-0.9c-0.1-45.4-0.3-93.2,0-137.3"/>
<path class="st1" d="M523.6,52l41.1,0.1c0.3,0,0.6,0.2,0.8,0.4l25.2,38.3c0.1,0.2,0.3,0.2,0.5,0.1l0.1-0.1l25.3-38.1
	c0.3-0.4,0.8-0.7,1.3-0.7h41.4c0.3,0,0.4,0.1,0.2,0.4l-45,65.2c-0.1,0.2-0.1,0.5,0,0.7l48.9,71.5c0.2,0.3,0.1,0.4-0.2,0.4h-42.1
	c-0.4,0-0.7-0.2-0.9-0.5L591.3,148c-0.1-0.2-0.4-0.3-0.6-0.1l-0.1,0.1l-28.2,41.6c-0.2,0.4-0.6,0.6-1.1,0.6h-40.7
	c-0.5,0-0.6-0.2-0.3-0.6l48.3-69.3c0.2-0.3,0.2-0.7,0-1l-45.3-66.8C523.2,52.1,523.2,52,523.6,52z"/>
<path class="st1" d="M683.7,52l34.7,0.1c0.3,0,0.6,0.2,0.8,0.4l32.2,57.9c0.3,0.5,0.6,0.5,0.8,0l31.3-57.9c0.2-0.3,0.5-0.5,0.9-0.5
	h34.9c0.2,0,0.3,0.2,0.3,0.4c0,0.1,0,0.1,0,0.2l-49.3,92.8c-0.2,0.4-0.3,0.8-0.3,1.3v43.1c0,0.3-0.3,0.6-0.6,0.6h-35
	c-0.4,0-0.7-0.3-0.7-0.7c0-13.8,0-27.3,0-40.6c0-1.5-0.3-2.9-1-4.1c-16.4-30.6-32.9-61.3-49.4-92.1c-0.1-0.2,0-0.5,0.2-0.6
	C683.6,52,683.7,52,683.7,52z"/>
<path class="st1" d="M423.2,87.8l11.1,11.1c0.2,0.2,0.2,0.6,0,0.8l-60.9,60.8c-0.2,0.2-0.5,0.2-0.7,0l-30.1-30c-0.3-0.3-0.3-0.7,0-1
	l0,0l10.9-10.7c0.3-0.2,0.6-0.2,0.9,0l18.3,18.2c0.2,0.2,0.5,0.2,0.7,0l0,0l49.1-49.1C422.7,87.6,423,87.6,423.2,87.8L423.2,87.8z"
	/>
</svg>
