<svg width="11" height="12" viewBox="0 0 11 12" fill="none" xmlns="http://www.w3.org/2000/svg">
<path d="M7.515 6.16544C7.55833 6.11344 7.593 6.05277 7.619 5.98344C7.67967 5.84477 7.67967 5.70611 7.619 5.56744C7.593 5.49811 7.55833 5.43744 7.515 5.38544L5.89 3.76044C5.786 3.65644 5.656 3.60444 5.5 3.60444C5.344 3.60444 5.214 3.65644 5.11 3.76044C5.006 3.86444 4.954 3.99444 4.954 4.15044C4.954 4.30644 5.006 4.43644 5.11 4.54044L5.825 5.22944H3.875C3.72767 5.22944 3.59767 5.28577 3.485 5.39844C3.381 5.50244 3.329 5.62811 3.329 5.77544C3.329 5.92277 3.381 6.05277 3.485 6.16544C3.59767 6.26944 3.72767 6.32144 3.875 6.32144H5.825L5.11 7.01044C4.99733 7.11444 4.941 7.24444 4.941 7.40044C4.941 7.55644 4.993 7.69077 5.097 7.80344C5.20967 7.90744 5.344 7.95944 5.5 7.95944C5.656 7.95944 5.786 7.90311 5.89 7.79044L7.515 6.16544ZM10.921 5.77544C10.921 4.79611 10.674 3.88611 10.18 3.04544C9.70333 2.22211 9.05333 1.57211 8.23 1.09544C7.38933 0.601439 6.47933 0.354439 5.5 0.354439C4.52067 0.354439 3.61067 0.601439 2.77 1.09544C1.94667 1.57211 1.29667 2.22211 0.82 3.04544C0.326 3.88611 0.0790001 4.79611 0.0790001 5.77544C0.0790001 6.75477 0.326 7.66477 0.82 8.50544C1.29667 9.32877 1.94667 9.97877 2.77 10.4554C3.61067 10.9494 4.52067 11.1964 5.5 11.1964C6.47933 11.1964 7.38933 10.9494 8.23 10.4554C9.05333 9.97877 9.70333 9.32877 10.18 8.50544C10.674 7.66477 10.921 6.75477 10.921 5.77544ZM1.171 5.77544C1.171 4.99544 1.366 4.26744 1.756 3.59144C2.146 2.94144 2.666 2.42144 3.316 2.03144C3.992 1.64144 4.72 1.44644 5.5 1.44644C6.28 1.44644 7.008 1.64144 7.684 2.03144C8.334 2.42144 8.854 2.94144 9.244 3.59144C9.634 4.26744 9.829 4.99544 9.829 5.77544C9.829 6.55544 9.634 7.28344 9.244 7.95944C8.854 8.60944 8.334 9.12944 7.684 9.51944C7.008 9.90944 6.28 10.1044 5.5 10.1044C4.72 10.1044 3.992 9.90944 3.316 9.51944C2.666 9.12944 2.146 8.60944 1.756 7.95944C1.366 7.28344 1.171 6.55544 1.171 5.77544Z" fill="#CED4DA"/>
</svg>
