<svg width="11" height="12" viewBox="0 0 11 12" fill="none" xmlns="http://www.w3.org/2000/svg">
<path d="M3.485 6.16544C3.44167 6.11344 3.407 6.05277 3.381 5.98344C3.32033 5.84477 3.32033 5.70611 3.381 5.56744C3.407 5.49811 3.44167 5.43744 3.485 5.38544L5.11 3.76044C5.214 3.65644 5.344 3.60444 5.5 3.60444C5.656 3.60444 5.786 3.65644 5.89 3.76044C5.994 3.86444 6.046 3.99444 6.046 4.15044C6.046 4.30644 5.994 4.43644 5.89 4.54044L5.175 5.22944H7.125C7.27233 5.22944 7.40233 5.28577 7.515 5.39844C7.619 5.50244 7.671 5.62811 7.671 5.77544C7.671 5.92277 7.619 6.05277 7.515 6.16544C7.40233 6.26944 7.27233 6.32144 7.125 6.32144H5.175L5.89 7.01044C6.00267 7.11444 6.059 7.24444 6.059 7.40044C6.059 7.55644 6.007 7.69077 5.903 7.80344C5.79033 7.90744 5.656 7.95944 5.5 7.95944C5.344 7.95944 5.214 7.90311 5.11 7.79044L3.485 6.16544ZM0.0789993 5.77544C0.0789993 4.79611 0.325999 3.88611 0.82 3.04544C1.29667 2.22211 1.94667 1.57211 2.77 1.09544C3.61067 0.601439 4.52067 0.354439 5.5 0.354439C6.47933 0.354439 7.38933 0.601439 8.23 1.09544C9.05333 1.57211 9.70333 2.22211 10.18 3.04544C10.674 3.88611 10.921 4.79611 10.921 5.77544C10.921 6.75477 10.674 7.66477 10.18 8.50544C9.70333 9.32877 9.05333 9.97877 8.23 10.4554C7.38933 10.9494 6.47933 11.1964 5.5 11.1964C4.52067 11.1964 3.61067 10.9494 2.77 10.4554C1.94667 9.97877 1.29667 9.32877 0.82 8.50544C0.325999 7.66477 0.0789993 6.75477 0.0789993 5.77544ZM9.829 5.77544C9.829 4.99544 9.634 4.26744 9.244 3.59144C8.854 2.94144 8.334 2.42144 7.684 2.03144C7.008 1.64144 6.28 1.44644 5.5 1.44644C4.72 1.44644 3.992 1.64144 3.316 2.03144C2.666 2.42144 2.146 2.94144 1.756 3.59144C1.366 4.26744 1.171 4.99544 1.171 5.77544C1.171 6.55544 1.366 7.28344 1.756 7.95944C2.146 8.60944 2.666 9.12944 3.316 9.51944C3.992 9.90944 4.72 10.1044 5.5 10.1044C6.28 10.1044 7.008 9.90944 7.684 9.51944C8.334 9.12944 8.854 8.60944 9.244 7.95944C9.634 7.28344 9.829 6.55544 9.829 5.77544Z" fill="#CED4DA"/>
</svg>
