<svg width="16" height="16" viewBox="0 0 16 16" fill="none" xmlns="http://www.w3.org/2000/svg">
<path d="M14.4395 6.91333C14.4619 6.87395 14.4776 6.83116 14.4861 6.78666L14.9861 4.11999C15.018 3.94318 14.9782 3.76097 14.8757 3.61344C14.7732 3.46591 14.6163 3.36515 14.4395 3.33333C14.2627 3.3015 14.0804 3.34122 13.9329 3.44374C13.7854 3.54626 13.6846 3.70318 13.6528 3.87999L13.4061 5.21333C12.8512 4.19994 12.0219 3.36347 11.0133 2.79985C10.0047 2.23623 8.85773 1.96829 7.70383 2.02675C6.54994 2.08521 5.43588 2.46771 4.48943 3.13037C3.54298 3.79304 2.80246 4.70904 2.3528 5.77333C2.28684 5.93691 2.28839 6.11996 2.35711 6.2824C2.42584 6.44484 2.55613 6.57342 2.71946 6.63999C2.80083 6.67369 2.88807 6.69092 2.97614 6.6907C3.06421 6.69048 3.15136 6.67282 3.23257 6.63872C3.31377 6.60463 3.38741 6.55479 3.44924 6.49207C3.51107 6.42935 3.55986 6.35501 3.5928 6.27333C3.95182 5.3912 4.5693 4.63831 5.36411 4.11359C6.15892 3.58887 7.09388 3.31687 8.04613 3.33333C8.88832 3.3294 9.7166 3.54806 10.4471 3.96717C11.1776 4.38628 11.7844 4.99096 12.2061 5.71999L11.1061 5.53999C11.0186 5.52599 10.9291 5.52936 10.8429 5.54992C10.7566 5.57048 10.6753 5.60783 10.6035 5.65983C10.5317 5.71183 10.4708 5.77747 10.4244 5.85299C10.3779 5.92852 10.3468 6.01245 10.3328 6.09999C10.3188 6.18754 10.3222 6.27699 10.3427 6.36324C10.3633 6.44948 10.4006 6.53083 10.4526 6.60264C10.5046 6.67445 10.5703 6.73532 10.6458 6.78176C10.7213 6.82821 10.8052 6.85932 10.8928 6.87333L13.7261 7.34666H13.8328C13.9102 7.34759 13.9871 7.33403 14.0595 7.30666C14.0839 7.29739 14.1065 7.28385 14.1261 7.26666C14.1739 7.24889 14.2189 7.22418 14.2595 7.19333L14.3128 7.12666C14.3474 7.09429 14.3786 7.05856 14.4061 7.01999C14.4223 6.98624 14.4336 6.95031 14.4395 6.91333ZM13.2528 9.37999C13.171 9.34649 13.0834 9.32958 12.995 9.33024C12.9066 9.33091 12.8193 9.34915 12.738 9.38389C12.6567 9.41863 12.5832 9.46918 12.5216 9.5326C12.4601 9.59603 12.4118 9.67106 12.3795 9.75333C12.0179 10.6262 11.4028 11.3705 10.6136 11.8899C9.82438 12.4093 8.89748 12.6799 7.9528 12.6667C7.1106 12.6706 6.28232 12.4519 5.5518 12.0328C4.82129 11.6137 4.21447 11.009 3.7928 10.28L4.8928 10.46H4.99946C5.17627 10.4741 5.35146 10.4175 5.48649 10.3024C5.62151 10.1874 5.70532 10.0235 5.71946 9.84666C5.73361 9.66985 5.67693 9.49466 5.56191 9.35964C5.44689 9.22461 5.28294 9.14081 5.10613 9.12666L2.2728 8.66666C2.20007 8.65325 2.12552 8.65325 2.0528 8.66666H1.99946C1.92401 8.68673 1.85207 8.7182 1.78613 8.75999C1.74118 8.79472 1.70085 8.83505 1.66613 8.87999L1.60613 8.94666C1.58552 8.98685 1.56985 9.02938 1.55946 9.07333C1.5361 9.1074 1.5202 9.14602 1.5128 9.18666L1.0128 11.8533C0.991383 11.9419 0.988368 12.034 1.00394 12.1238C1.01951 12.2136 1.05333 12.2993 1.10331 12.3755C1.1533 12.4517 1.21838 12.5169 1.29455 12.567C1.37071 12.6171 1.45633 12.651 1.54613 12.6667H1.66613C1.82399 12.6692 1.97764 12.6157 2.09972 12.5156C2.2218 12.4155 2.3044 12.2753 2.3328 12.12L2.57946 10.7867C3.13381 11.8003 3.9626 12.6372 4.9708 13.2013C5.979 13.7655 7.12579 14.0341 8.27965 13.9763C9.43352 13.9186 10.5478 13.5368 11.4946 12.8748C12.4414 12.2127 13.1825 11.2973 13.6328 10.2333C13.6939 10.0697 13.6883 9.88856 13.6172 9.72898C13.5462 9.5694 13.4153 9.44408 13.2528 9.37999Z" fill="white"/>
</svg>
