<svg width="33" height="32" viewBox="0 0 33 32" fill="none" xmlns="http://www.w3.org/2000/svg">
<circle cx="16.8604" cy="16" r="16" fill="#556EE6" fill-opacity="0.4"/>
<path fill-rule="evenodd" clip-rule="evenodd" d="M16.6406 8.71975C16.5004 8.57875 16.3091 8.5 16.1104 8.5H12.3604C12.1616 8.5 11.9704 8.57875 11.8301 8.71975L9.5801 10.9698C9.4391 11.11 9.36035 11.3005 9.36035 11.5V15.25C9.36035 15.4495 9.4391 15.64 9.5801 15.7802L17.0801 23.2803C17.2264 23.4265 17.4184 23.5 17.6104 23.5C17.8024 23.5 17.9944 23.4265 18.1406 23.2803L24.1406 17.2803C24.4339 16.987 24.4339 16.513 24.1406 16.2198L16.6406 8.71975ZM17.6104 21.6895L10.8604 14.9395V11.8105L12.6709 10H15.7999L22.5499 16.75L17.6104 21.6895Z" fill="#556EE6"/>
<circle cx="14.1249" cy="13.2647" r="1.23525" fill="#556EE6"/>
</svg>
