<svg width="33" height="32" viewBox="0 0 33 32" fill="none" xmlns="http://www.w3.org/2000/svg">
<circle cx="16.8604" cy="16" r="16" fill="#556EE6" fill-opacity="0.4"/>
<path fill-rule="evenodd" clip-rule="evenodd" d="M24.1399 10.969L21.8906 8.71975C21.7504 8.57875 21.5599 8.5 21.3604 8.5H12.3604C12.1609 8.5 11.9704 8.57875 11.8301 8.71975L9.58085 10.969C9.44435 11.1047 9.36035 11.2923 9.36035 11.5V21.25C9.36035 22.0772 10.0331 22.75 10.8604 22.75H22.8604C23.6876 22.75 24.3604 22.0772 24.3604 21.25V11.5C24.3604 11.2923 24.2764 11.1047 24.1399 10.969ZM12.6709 10H21.0499L21.7999 10.75H11.9209L12.6709 10ZM10.8604 21.25V12.25H22.8604L22.8619 21.25H10.8604Z" fill="#556EE6"/>
<path fill-rule="evenodd" clip-rule="evenodd" d="M18.3604 13.75H15.3604V16H13.1104L16.8604 19.75L20.6104 16H18.3604V13.75Z" fill="#556EE6"/>
</svg>
