<svg width="33" height="32" viewBox="0 0 33 32" fill="none" xmlns="http://www.w3.org/2000/svg">
<circle cx="16.8604" cy="16" r="16" fill="#556EE6" fill-opacity="0.4"/>
<path fill-rule="evenodd" clip-rule="evenodd" d="M22.8604 8.5H15.3604C14.5331 8.5 13.8604 9.17275 13.8604 10V13H10.8604C10.0331 13 9.36035 13.6728 9.36035 14.5V22C9.36035 22.8273 10.0331 23.5 10.8604 23.5H18.3604C19.1876 23.5 19.8604 22.8273 19.8604 22V19H22.8604C23.6876 19 24.3604 18.3272 24.3604 17.5V10C24.3604 9.17275 23.6876 8.5 22.8604 8.5ZM10.8604 22V14.5H18.3604L18.3619 22H10.8604ZM22.8604 17.5H19.8604V14.5C19.8604 13.6728 19.1876 13 18.3604 13H15.3604V10H22.8604V17.5Z" fill="#556EE6"/>
<path fill-rule="evenodd" clip-rule="evenodd" d="M12.3604 16H16.8604V17.5H12.3604V16ZM12.3604 19H16.8604V20.5H12.3604V19Z" fill="#556EE6"/>
</svg>
